<svg width="1000" height="1000" viewBox="0 0 1000 1000" fill="none" xmlns="http://www.w3.org/2000/svg">
<path d="M0 0H1000V1000H0V0Z" fill="white"/>
<path d="M71.3125 535.125L87.875 535.188V534.188L89 464.812H72.4375L72.5625 518.062L71.3125 535.125ZM73.3125 457.188L88.9375 457.25V457L89.5 441.062H73.875L73.3125 457.188ZM105.5 467.188L103.938 465.562H102.375L100.812 467.188V468.75L102.375 470.375H103.938L105.5 468.75V467.188ZM141 444.062L141.062 441.125L139.188 440.25L135.375 441.5L133.5 443.5L133.438 446.438L135.312 447.312L139.062 446.062L141 444.062ZM98.75 432.375L96.125 542L63.125 540.875L61.8125 537.312H61.125L63.125 518.438V517.25L62.5 516.062V514.938L63.125 513.688H63.75L63.125 512.562V511.312L63.75 505.5H63.125L63.75 504.25V493.688H66.375V492.438L65.0625 488.938V487.812H66.375L67.75 485.438L67.0625 484.25L67.75 483.062V481.875L67.0625 480.688V479.5L65.0625 441.75L65.75 440.562V439.375C64.4167 439.375 63.75 438.583 63.75 437V434.688L65.75 431.125L98.75 432.375ZM9.9375 552.062L9.5625 551.562L10.8125 536.562H11.25L12.5625 537L12.1875 536.562L12.5 533.312C13.6667 533.271 14.375 531.771 14.625 528.812L15.4375 529.688L13.6875 534.25L14.0625 535.625L12.8125 540.188H11.9375L12.125 537.5H11.625L11.125 543.875L11.4375 545.688L10.875 547L11.1875 548.875L10.6875 549.312L10.625 549.75L11 551.562L10.4375 552.062H9.9375ZM20.8125 547.938H20.3125C20.5208 545.521 20.0625 543.854 18.9375 542.938H19.375L21.5 545.25H21L21.375 546.562L20.8125 547.938ZM32.125 460.688H33.5625L33.4375 461.188L32 461.625L32.125 460.688ZM22.625 461.625L26.0625 461.75L28.375 462.375L28.25 463.312L22.625 462.125L21.5 463.062H21L22.625 461.625ZM15.5625 528.375L14.6875 527.438L15.6875 526.5L15.5625 528.375ZM15 523.75H14.125L14.3125 521.5H15.1875L15 523.75ZM13 520.125H12.125L16.4375 467.25H17.3125L14.875 497.75L15.3125 498.25L14.75 498.625L14.125 506.875L14.5 508.25L13.8125 510.562L13 520.125ZM17.25 518.75L17.3125 517.375H18.25V517.875L17.25 518.75ZM18.3125 516.5H17.4375L19.5 507.812H20.375L18.3125 516.5ZM16.9375 511.438H16L15.75 508.75H16.25L17.0625 509.625L16.9375 511.438ZM20.9375 506.875H20.0625L20.25 504.188H21.125L20.9375 506.875ZM21.6875 503.25H20.75L20.875 501.875H21.8125L21.6875 503.25ZM22.3125 501H21.4375L21.625 498.625H22.5L22.3125 501ZM18.8125 499.125H17.9375L18.125 496.812H19L18.8125 499.125ZM23.6875 495.062H22.8125L23 492.75H23.875L23.6875 495.062ZM25.0625 489.5H24.125L24.3125 487.25H25.25L25.0625 489.5ZM20.75 486.875H19.8125L20 484.562H20.9375L20.75 486.875ZM26.5 483.625H25.5625L25.6875 481.812H26.625L26.5 483.625ZM28.5625 474.5H26.75L26.8125 473.688H28.625L28.5625 474.5ZM39 461.375L41.25 461.5L41.125 462.438L38.875 462.312L39 461.375Z" fill="black"/>
<path d="M98.3125 429C127.188 431.208 141.792 432.646 142.125 433.312L141.812 435.188C141.312 490.104 141.021 508.979 140.938 491.812L140.312 531.5L141 536.75L141.062 538.125L140.375 539L97.75 532.938L96.9375 534.312L96.5625 533.812H96.25L98.1875 493.438C97.3542 492.812 96.9375 492.021 96.9375 491.062C96.8958 485.729 97.1667 483.083 97.75 483.125C98.1667 483.083 98.375 484.479 98.375 487.312H98.6875L98.8125 452.062H98.5625C98.9375 449.812 99.1042 446.229 99.0625 441.312L97.75 440.75V439.812L98.0625 440.312L98.375 440.25V438.875H97.75V437.938L97.375 431.75C97.5417 429.583 97.8542 428.5 98.3125 428.5V429ZM114.438 512.5H125.25V512.438L125.625 512.5L125.312 458.875H138.938V449.062H100.25V458.875H113.812L114 512.5L114.438 512.438V512.5Z" fill="black"/>
<path d="M153.938 468.312L154.062 466.312C154.229 461.188 156.688 458.083 161.438 457C165.271 457.208 168.521 461.896 171.188 471.062L180.062 467.625C178.979 456.583 174.708 450.875 167.25 450.5L162.625 449.25L160.25 449.125C149.625 451 144.167 456.25 143.875 464.875L143.562 470.688C143.271 478.729 149.646 488.188 162.688 499.062C165.812 503.646 167.312 507.354 167.188 510.188L167.062 512.188C166.938 517.312 164.458 520.417 159.625 521.5C155.792 521.333 152.562 516.646 149.938 507.438L141.125 510.875C142.167 521.917 146.417 527.646 153.875 528.062L158.562 529.25L160.938 529.375C171.562 527.5 177.021 522.25 177.312 513.625L177.562 507.812C177.854 499.771 171.521 490.354 158.562 479.562C155.354 474.896 153.812 471.146 153.938 468.312ZM182.625 436.188L183.438 437.25L182.75 438.438L182.812 439.625L183.5 440.562L183.562 441.688C182.521 441.812 181.604 477.625 180.812 549.125C161.104 550 146.833 550.042 138 549.25C139.833 499.542 140.375 461.646 139.625 435.562C152.25 435.688 166.583 435.896 182.625 436.188ZM222.938 447.875L224.5 449.5H226.062L227.625 447.875V446.312L226.062 444.688H224.5L222.938 446.312V447.875ZM114.938 447.312L115 444.375L113.125 443.5L109.312 444.75L107.438 446.75L107.375 449.688L109.25 450.562L113 449.312L114.938 447.312ZM115.688 522.188C114.312 522.771 113.229 524.375 112.438 527L113.938 527.625L119.312 525.188C119.312 524.188 118.75 523.375 117.625 522.75H117.25L116.75 523.312C116.75 522.938 116.396 522.562 115.688 522.188ZM120.812 533.812L121.312 534.438C120.812 536.062 120.312 536.875 119.812 536.875L118.812 535.625V535L120.812 533.812ZM132.625 531.75H134C136.625 533.375 137.938 535.042 137.938 536.75C136.896 540.083 136.021 541.75 135.312 541.75L130.625 535C131.25 532.833 131.917 531.75 132.625 531.75Z" fill="black"/>
<path d="M205.312 468.25L205.125 471L203.812 470.938L204 468.188L205.312 468.25ZM205.25 471.5L205.188 473.25L204.5 473.188L203.875 471.438L205.25 471.5ZM191.812 456.688L185 456.562L185.188 535.75L199.75 535.562L199.125 491.312L200.562 491.125L209.875 535.188L232.5 534.188L232.375 456.5H231.688L217.875 456.562L218.438 506.75L206.812 456.25L201.812 456.812L193.312 456.688L192.625 458.875L191.25 458.812L191.812 456.688ZM245.75 528.312L253.062 528.375L253.188 529.812L246.062 530.5L244.375 529.188L245.062 528.375L245.75 528.312ZM285.688 458.125L286.375 457.625H308.125V458.125L307.438 459.812L308.125 459.312H312.75C312.833 460.729 315.021 461.438 319.312 461.438L318.062 462.562L311.438 460.875L309.438 461.438L302.875 460.375V459.312H306.75V458.688H297.562L294.875 459.312L293 458.688L290.312 459.312L289.688 458.688H289L286.375 459.312L285.688 458.688V458.125ZM291.625 470.812V470.25C295.125 470.25 297.542 469.521 298.875 468.062V468.625L295.562 471.375V470.812L293.625 471.375L291.625 470.812ZM319.938 462.562L321.312 461.438L322.625 462.562H319.938ZM326.562 461.438V460.375H329.812V461.438H326.562ZM125.5 534.5V533.438H137.375L140.188 532.812L141.875 533.438H152L152.5 532.812L153.188 533.438H181.312V533.312L179.75 479.5L179.812 478.875L180.5 478.188L179.938 477.438L180.438 471.062C180.688 467.771 180.417 466.062 179.625 465.938L177.938 438.688L178.125 436.625L212.25 435.812L212.75 436.562L235.938 435.375L236.5 436.188C237 489.771 237.208 525.5 237.125 543.375L181.75 544.312L181.438 540.375L181.312 534.5H125.5ZM333.812 463.625H335.812V464.75H335.125L333.812 463.625ZM121.25 524.875V522.75L133.75 525.938V527.938L121.25 524.875ZM128.5 520.688V518.562L132.438 517.5V518.562L131.125 520.688H128.5ZM135.125 529V527H139V529H135.125ZM140.312 530.062V527.938H142.312V530.062H140.312ZM143.625 531.125V529H147V531.125H143.625ZM146.312 522.75V520.688H149.625V522.75H146.312ZM152.188 533.188V531.125H155.5V533.188H152.188ZM160.188 535.312V533.188H163.438V535.312H160.188ZM164.062 524.875V522.75H167.375V524.875H164.062ZM168.688 537.438V535.312H171.375V537.438H168.688ZM314.5 531L316.688 530.938L316.812 532.25L314.625 532.562L314.5 531ZM296.125 529.75L307.875 530.188L308 531.625L307.25 531.75L296.312 531.188L296.125 529.75ZM291.812 529.5L293.938 529.188L295.5 530.562L291.875 530.812L291.812 529.5ZM280.125 529.688L285.188 529.188L285.25 530.75H284.625L283.812 530.125L283.125 530.938L280.25 531.188L280.125 529.688ZM261.875 529.125L277.188 529.188L277.312 530.75L261.938 530.562L261.875 529.125Z" fill="black"/>
<path d="M252.125 501.25H251.938L252.125 487.875C252.208 482.708 252.625 477.333 253.375 471.75C254.458 464.75 257.104 461.271 261.312 461.312C264.688 461.396 266.833 463.729 267.75 468.312C268.625 470.812 269.125 477.396 269.25 488.062H269.438L269.25 501.438C269.167 506.604 268.75 511.979 268 517.562C266.917 524.562 264.25 528.042 260 528C256.625 527.917 254.5 525.583 253.625 521C252.75 518.5 252.25 511.917 252.125 501.25ZM242.938 531.062C245.312 537.438 250.792 540.688 259.375 540.812C270.208 540.938 276.958 536.167 279.625 526.5C281.458 518.833 282.438 511.417 282.562 504.25L282.875 485.812H282.438C281.979 471.104 280.604 462.021 278.312 458.562C275.938 452.229 270.458 449 261.875 448.875C251.042 448.75 244.292 453.521 241.625 463.188C239.792 470.812 238.812 478.208 238.688 485.375L238.375 503.812H238.812C239.271 518.562 240.646 527.646 242.938 531.062ZM198.938 447.5L197.375 445.875H195.812L194.25 447.5V449.062L195.812 450.688H197.375L198.938 449.062V447.5ZM309.812 442.188L309.75 445.125L311.625 446L315.438 444.75L317.312 442.75L317.375 439.812L315.5 438.938L311.75 440.188L309.812 442.188ZM232.312 443.188L232.688 442.562L233.375 442.625V443.562L233.438 443.625L235 442.875L234 441.25L234.438 440.375V438L233.438 437.938L232.938 436.938L232.438 437.812C231.938 439.104 231.417 440.062 230.875 440.688C230.875 440.188 230.854 439.708 230.812 439.25H230.875V438.812L230.812 438.75C230.812 437.792 230.792 436.833 230.75 435.875L235.625 434.875L287.625 440.188L289.5 540.938L291.25 548.125V549.25L286 548.812C286 551.188 285.438 552.333 284.312 552.25L233.938 547.562C234.396 546.771 234.188 536.75 233.312 517.5C232.479 499.5 231.688 474.542 230.938 442.625L232.312 443.188ZM344.062 458.875C345.438 458.292 346.521 456.688 347.312 454.062L345.812 453.438L340.438 455.875C340.438 456.875 341 457.688 342.125 458.312H342.5L343 457.75C343 458.125 343.354 458.5 344.062 458.875ZM338.938 447.25L338.438 446.625C338.938 445 339.438 444.188 339.938 444.188L340.938 445.438V446L338.938 447.25ZM216.75 530.812H215.375C212.75 529.188 211.438 527.521 211.438 525.812C212.479 522.479 213.354 520.812 214.062 520.812L218.75 527.562C218.125 529.729 217.458 530.812 216.75 530.812Z" fill="black"/>
<path d="M285.688 429C314.562 431.208 329.167 432.646 329.5 433.312L329.188 435.188C328.688 490.104 328.396 508.979 328.312 491.812L327.688 531.5L328.375 536.75L328.438 538.125L327.75 539L285.125 532.938L284.312 534.312L283.938 533.812H283.625L285.562 493.438C284.729 492.812 284.312 492.021 284.312 491.062C284.271 485.729 284.542 483.083 285.125 483.125C285.542 483.083 285.75 484.479 285.75 487.312H286.062L286.188 452.062H285.938C286.312 449.812 286.479 446.229 286.438 441.312L285.125 440.75V439.812L285.438 440.312L285.75 440.25V438.875H285.125V437.938L284.75 431.75C284.917 429.583 285.229 428.5 285.688 428.5V429ZM301.812 512.5H312.625V512.438L313 512.5L312.688 458.875H326.312V449.062H287.625V458.875H301.188L301.375 512.5L301.812 512.438V512.5Z" fill="black"/>
<path d="M345.75 492.938H345.562L345.75 479.562C345.833 474.396 346.25 469.021 347 463.438C348.083 456.438 350.729 452.958 354.938 453C358.312 453.083 360.458 455.417 361.375 460C362.25 462.5 362.75 469.083 362.875 479.75H363.062L362.875 493.125C362.792 498.292 362.375 503.667 361.625 509.25C360.542 516.25 357.875 519.729 353.625 519.688C350.25 519.604 348.125 517.271 347.25 512.688C346.375 510.188 345.875 503.604 345.75 492.938ZM363.688 542.938L367.25 538.312L359.312 532.75C365.562 531.042 369.625 526.667 371.5 519.625C373.333 511.958 374.312 504.542 374.438 497.375L374.75 478.938H374.312C373.854 464.229 372.479 455.146 370.188 451.688C367.812 445.354 362.333 442.125 353.75 442C342.917 441.875 336.167 446.646 333.5 456.312C331.667 463.938 330.688 471.333 330.562 478.5L330.25 496.938H330.688C331.146 511.688 332.521 520.771 334.812 524.188C337.188 530.562 342.667 533.812 351.25 533.938L351.375 534L363.688 542.938ZM379.125 437.5L380.938 503L379.875 502.938L380.875 534.688L380.375 547.188L379.25 549.938L377.688 548.875C372.646 551 370.167 551.021 370.25 548.938L369.75 548.875L369.625 550.688L369.125 550.625L368.625 549.562L328.875 544.875L328.375 545.812L327.312 545.625L325.312 541.562L325.375 538.75L326.25 530.188L326.688 461.062L327.188 460.125L327.25 459.188L327 450.562L327.125 431.062C341.333 430.812 358.083 431.292 377.375 432.5C378.75 432.583 379.333 434.25 379.125 437.5Z" fill="black"/>
<path d="M381.125 444.5V494.562C381.125 506.896 384.667 515.125 391.75 519.25L399.875 520.938C409.458 520.938 415.583 514.812 418.25 502.562L418.625 494.562V444.5H402.75V501.312C402.75 503.396 402.062 504.917 400.688 505.875H399.062C397.688 504.917 397 503.396 397 501.312V444.5H381.125ZM390.125 549.438H389.688L389.312 548.688V549.438H377.938C377.146 549.438 376.75 548.979 376.75 548.062L377 445.562L377.812 440.125L377 438.75L377.812 437.438L377.438 434.062H378.188L378.625 434.688C378.708 432.896 379.104 432 379.812 432L380.938 433.375H381.375C381.375 431.833 382.312 430.708 384.188 430H384.562L385 430.688L383.75 433.375V434.062L388.125 430L415.875 426.625L423.062 436.688C422.979 438.062 422.938 441.458 422.938 446.875L422.438 518.625L421.625 546.312L390.125 549.438Z" fill="black"/>
<path d="M426.062 535.125L442.625 535.188V534.188L443.75 464.812H427.188L427.312 518.062L426.062 535.125ZM428.062 457.188L443.688 457.25V457L444.25 441.062H428.625L428.062 457.188ZM460.25 467.188L458.688 465.562H457.125L455.562 467.188V468.75L457.125 470.375H458.688L460.25 468.75V467.188ZM495.75 444.062L495.812 441.125L493.938 440.25L490.125 441.5L488.25 443.5L488.188 446.438L490.062 447.312L493.812 446.062L495.75 444.062ZM453.5 432.375L450.875 542L417.875 540.875L416.562 537.312H415.875L417.875 518.438V517.25L417.25 516.062V514.938L417.875 513.688H418.5L417.875 512.562V511.312L418.5 505.5H417.875L418.5 504.25V493.688H421.125V492.438L419.812 488.938V487.812H421.125L422.5 485.438L421.812 484.25L422.5 483.062V481.875L421.812 480.688V479.5L419.812 441.75L420.5 440.562V439.375C419.167 439.375 418.5 438.583 418.5 437V434.688L420.5 431.125L453.5 432.375ZM364.688 552.062L364.312 551.562L365.562 536.562H366L367.312 537L366.938 536.562L367.25 533.312C368.417 533.271 369.125 531.771 369.375 528.812L370.188 529.688L368.438 534.25L368.812 535.625L367.562 540.188H366.688L366.875 537.5H366.375L365.875 543.875L366.188 545.688L365.625 547L365.938 548.875L365.438 549.312L365.375 549.75L365.75 551.562L365.188 552.062H364.688ZM375.562 547.938H375.062C375.271 545.521 374.812 543.854 373.688 542.938H374.125L376.25 545.25H375.75L376.125 546.562L375.562 547.938ZM386.875 460.688H388.312L388.188 461.188L386.75 461.625L386.875 460.688ZM377.375 461.625L380.812 461.75L383.125 462.375L383 463.312L377.375 462.125L376.25 463.062H375.75L377.375 461.625ZM370.312 528.375L369.438 527.438L370.438 526.5L370.312 528.375ZM369.75 523.75H368.875L369.062 521.5H369.938L369.75 523.75ZM367.75 520.125H366.875L371.188 467.25H372.062L369.625 497.75L370.062 498.25L369.5 498.625L368.875 506.875L369.25 508.25L368.562 510.562L367.75 520.125ZM372 518.75L372.062 517.375H373V517.875L372 518.75ZM373.062 516.5H372.188L374.25 507.812H375.125L373.062 516.5ZM371.688 511.438H370.75L370.5 508.75H371L371.812 509.625L371.688 511.438ZM375.688 506.875H374.812L375 504.188H375.875L375.688 506.875ZM376.438 503.25H375.5L375.625 501.875H376.562L376.438 503.25ZM377.062 501H376.188L376.375 498.625H377.25L377.062 501ZM373.562 499.125H372.688L372.875 496.812H373.75L373.562 499.125ZM378.438 495.062H377.562L377.75 492.75H378.625L378.438 495.062ZM379.812 489.5H378.875L379.062 487.25H380L379.812 489.5ZM375.5 486.875H374.562L374.75 484.562H375.688L375.5 486.875ZM381.25 483.625H380.312L380.438 481.812H381.375L381.25 483.625ZM383.312 474.5H381.5L381.562 473.688H383.375L383.312 474.5ZM393.75 461.375L396 461.5L395.875 462.438L393.625 462.312L393.75 461.375Z" fill="black"/>
<path d="M453.062 429C481.938 431.208 496.542 432.646 496.875 433.312L496.562 435.188C496.062 490.104 495.771 508.979 495.688 491.812L495.062 531.5L495.75 536.75L495.812 538.125L495.125 539L452.5 532.938L451.688 534.312L451.312 533.812H451L452.938 493.438C452.104 492.812 451.688 492.021 451.688 491.062C451.646 485.729 451.917 483.083 452.5 483.125C452.917 483.083 453.125 484.479 453.125 487.312H453.438L453.562 452.062H453.312C453.688 449.812 453.854 446.229 453.812 441.312L452.5 440.75V439.812L452.812 440.312L453.125 440.25V438.875H452.5V437.938L452.125 431.75C452.292 429.583 452.604 428.5 453.062 428.5V429ZM469.188 512.5H480V512.438L480.375 512.5L480.062 458.875H493.688V449.062H455V458.875H468.562L468.75 512.5L469.188 512.438V512.5Z" fill="black"/>
<path d="M513.438 447.75H514.188L515.625 449.188L514.875 449.812V450.562L516.375 451.875H514.188L513.438 447.75ZM509.062 447.062H513.438C513.438 448.021 512.708 448.5 511.25 448.5L509.062 447.75V447.062ZM512 443.625H514.188V445H512V443.625ZM499.5 442.938H503.938V444.312H499.5V442.938ZM513.438 441.562H515.625V442.938H514.875L513.438 441.562ZM517 462.938V455.812H530.812L530.938 440.5H497.875L498.062 477.312L497.312 477.438L499 480L497.625 480.125L497.688 480.875L497.812 496.75L500.062 496.562L508.812 496.375L517 494.75V489.375H529.938V474.188H517V463.062H516.375L514.875 461.625H515.625L517 462.938ZM497.312 499.562V529.875H505.375L510.5 529.188V529.875L511.25 529.188H529.562V521.688L528.812 521L529.562 520.25V514.75H516.75V499.562H497.312ZM541.688 442.75H541.75V439.438L541.688 442.75ZM558.438 469V471.812L563.562 473.125L564.312 472.5V471.812L558.438 469ZM543.438 531.625H544.875L550 533L551.438 531.625V533.688L550.75 534.375L551.438 535.062V536.5C549.062 534.167 546.396 533 543.438 533V531.625ZM482.812 524.25L482.125 524.75H460.375V524.25L461.062 522.562L460.375 523.062H455.75C455.667 521.646 453.479 520.938 449.188 520.938L450.438 519.812L457.062 521.5L459.062 520.938L465.625 522V523.062H461.75V523.688H470.938L473.625 523.062L475.5 523.688L478.188 523.062L478.812 523.688H479.5L482.125 523.062L482.812 523.688V524.25ZM476.875 511.562V512.125C473.375 512.125 470.958 512.854 469.625 514.312V513.75L472.938 511V511.562L474.875 511L476.875 511.562ZM546.625 475.25L546.688 473.5L547.375 473.562L548 475.312L546.625 475.25ZM546.938 498.25L547.125 494.125L548 491.25L549.375 491.312L547.625 498.25L549 499.5V500.125L546.938 498.25ZM448.562 519.812L447.188 520.938L445.875 519.812H448.562ZM441.938 520.938V522H438.688V520.938H441.938ZM637.375 520.75V521.812H560.938V520.75H605L605.688 520.125L606.312 520.75H618.188L620.188 520.125L623.5 520.75H637.375ZM434.688 518.75H432.688V517.625H433.375L434.688 518.75ZM431.375 517.625V518.75L418.875 517.062V516L431.375 517.625ZM424.125 519.812V520.938L420.188 521.5V520.938L421.5 519.812H424.125ZM417.5 515.438V516.5H413.625V515.438H417.5ZM613 511.938V513.062H611V511.938H613ZM609.688 511.375V512.5H606.312V511.375H609.688ZM607 515.812V516.875H603.688V515.812H607ZM601.125 510.312V511.375H597.812V510.312H601.125ZM593.125 509.188V510.312H589.875V509.188H593.125ZM589.25 514.688V515.812H585.938V514.688H589.25ZM584.625 508.062V509.188H581.938V508.062H584.625ZM571.438 506.438V508.625H570.188V506.438H571.438ZM546.562 478.5L546.75 475.75L548.062 475.812L547.875 478.562L546.562 478.5ZM537.125 457L536.312 554.25L535.75 555.875L493.812 548.25V546.625L494.812 433.375L537.312 433.188L537.125 453.688L535.625 452L537.125 450.375V448.688H535.625L532.688 452V453.688L535.625 457H537.125ZM544.5 481.375H545.25L544.5 484.875L543 483.438V482.75L544.5 481.375ZM568.688 463.5H570.875V464.188L568.688 466.25V463.5Z" fill="black"/>
<path d="M560.875 494.562H562.188L562.125 496.562L562.688 499.875H562L560.75 498.562L560.875 494.562ZM545.812 501.188L547.688 501.938L546.375 503.25L545.062 501.938L545.812 501.188ZM579.625 445.812H577.5V446.062L579.188 446.812C579.188 446.479 579.333 446.146 579.625 445.812ZM553.562 503.75L551.562 503.25L549.562 503.875L548.938 503.25L549 502.562L550.938 501.938L553.562 502.438L553.625 493.188L554.938 493.25L560.438 535.75L561.062 535.812L570.75 535.625L570.812 535L578.812 485.562L577.438 533.312L577.25 535.375L593.5 534.875L594.75 480L596.688 446.188L579.625 445.812C580.417 444.854 582.292 443.854 585.25 442.812V442.062L582.875 441.375V440.75L583.062 437.188L601.312 436.5L603.125 444.625L598 508.875L597.438 509.562L597.375 510.188L599.625 544.938L600.188 545.562V546.25L537.438 552.25L534.312 501.5L535.562 498.812H535.625C535.25 496.229 535.062 494.688 535.062 494.188L535.188 486.875H532.875L529.938 486.188L530 485.5L530.562 484.812V484.188H528.875V483.5L529.438 482.875L529.5 482.188L528.25 480.812L529.562 478.812L529 478.188V477.5L531.438 472.125H530.812L528.438 472.875L529.125 472.125L528.438 471.438V470.812L536.188 440.062C533.854 439.646 533.604 438.438 535.438 436.438L580 436.75L579.938 437.375L579.312 440.75L580.5 442.062C580.208 444.312 579.208 445.438 577.5 445.438V445.812L572.938 445.688L566.5 493.562L564.438 473L565.062 473.062L563.688 466.938L564.312 466.375C564.354 461.458 563.979 458.521 563.188 457.562L563.875 457.625L563.25 456.875L563.375 455.5L564.062 454.938L563.562 452.938L560.312 453.375V452.75L563.875 449.562L563.562 444.875L550.75 443.5L546.25 443.25L545.625 442.5L544.938 443.188L544.312 443.125L543.75 442.438L543.125 442.375L539.625 445.5L540.25 445.562L540.938 444.938L541.562 445L542.125 445.625L539.562 475.062L538.938 475.625L539.438 476.375L538.688 485.688L537.125 490.938C537.583 495.021 537.521 510.188 536.938 536.438C547.771 536.146 553.229 535.562 553.312 534.688L553.562 503.75Z" fill="black"/>
<path d="M603.812 535.125L620.375 535.188V534.188L621.5 464.812H604.938L605.062 518.062L603.812 535.125ZM605.812 457.188L621.438 457.25V457L622 441.062H606.375L605.812 457.188ZM638 467.188L636.438 465.562H634.875L633.312 467.188V468.75L634.875 470.375H636.438L638 468.75V467.188ZM673.5 444.062L673.562 441.125L671.688 440.25L667.875 441.5L666 443.5L665.938 446.438L667.812 447.312L671.562 446.062L673.5 444.062ZM631.25 432.375L628.625 542L595.625 540.875L594.312 537.312H593.625L595.625 518.438V517.25L595 516.062V514.938L595.625 513.688H596.25L595.625 512.562V511.312L596.25 505.5H595.625L596.25 504.25V493.688H598.875V492.438L597.562 488.938V487.812H598.875L600.25 485.438L599.562 484.25L600.25 483.062V481.875L599.562 480.688V479.5L597.562 441.75L598.25 440.562V439.375C596.917 439.375 596.25 438.583 596.25 437V434.688L598.25 431.125L631.25 432.375ZM542.438 552.062L542.062 551.562L543.312 536.562H543.75L545.062 537L544.688 536.562L545 533.312C546.167 533.271 546.875 531.771 547.125 528.812L547.938 529.688L546.188 534.25L546.562 535.625L545.312 540.188H544.438L544.625 537.5H544.125L543.625 543.875L543.938 545.688L543.375 547L543.688 548.875L543.188 549.312L543.125 549.75L543.5 551.562L542.938 552.062H542.438ZM553.312 547.938H552.812C553.021 545.521 552.562 543.854 551.438 542.938H551.875L554 545.25H553.5L553.875 546.562L553.312 547.938ZM564.625 460.688H566.062L565.938 461.188L564.5 461.625L564.625 460.688ZM555.125 461.625L558.562 461.75L560.875 462.375L560.75 463.312L555.125 462.125L554 463.062H553.5L555.125 461.625ZM548.062 528.375L547.188 527.438L548.188 526.5L548.062 528.375ZM547.5 523.75H546.625L546.812 521.5H547.688L547.5 523.75ZM545.5 520.125H544.625L548.938 467.25H549.812L547.375 497.75L547.812 498.25L547.25 498.625L546.625 506.875L547 508.25L546.312 510.562L545.5 520.125ZM549.75 518.75L549.812 517.375H550.75V517.875L549.75 518.75ZM550.812 516.5H549.938L552 507.812H552.875L550.812 516.5ZM549.438 511.438H548.5L548.25 508.75H548.75L549.562 509.625L549.438 511.438ZM553.438 506.875H552.562L552.75 504.188H553.625L553.438 506.875ZM554.188 503.25H553.25L553.375 501.875H554.312L554.188 503.25ZM554.812 501H553.938L554.125 498.625H555L554.812 501ZM551.312 499.125H550.438L550.625 496.812H551.5L551.312 499.125ZM556.188 495.062H555.312L555.5 492.75H556.375L556.188 495.062ZM557.562 489.5H556.625L556.812 487.25H557.75L557.562 489.5ZM553.25 486.875H552.312L552.5 484.562H553.438L553.25 486.875ZM559 483.625H558.062L558.188 481.812H559.125L559 483.625ZM561.062 474.5H559.25L559.312 473.688H561.125L561.062 474.5ZM571.5 461.375L573.75 461.5L573.625 462.438L571.375 462.312L571.5 461.375Z" fill="black"/>
<path d="M674.562 482.75C673.562 499.208 669.542 507.25 662.5 506.875L650.812 506.188L653.562 457.375L665.25 458.062C672.292 458.438 675.396 466.667 674.562 482.75ZM670.812 442.5L636.062 440.562L631.5 521.438L632.188 522.375V523.188L633 522.375L658.125 523.812C676.042 524.688 686.854 517.667 690.562 502.75C694.271 487.833 695 474.25 692.75 462C690.542 449.708 683.229 443.208 670.812 442.5ZM629.875 456.438L630.188 434.938C630.771 438.229 630.812 437.646 630.312 433.188C630.188 430.396 631.25 429.646 633.5 430.938C668.958 430.229 686.708 430.438 686.75 431.562L687.438 430.688H692.812L697.625 431.562L697.375 541.625H695.938L697.5 546.625L697 550.75C664 552.5 642.708 553.375 633.125 553.375L631.125 555.062C631.25 532.896 630.875 523.688 630 527.438L629.312 519.062L629.875 456.438Z" fill="black"/>
<path d="M721.438 468.25L721.25 471L719.938 470.938L720.125 468.188L721.438 468.25ZM721.375 471.5L721.312 473.25L720.625 473.188L720 471.438L721.375 471.5ZM707.938 456.688L701.125 456.562L701.312 535.75L715.875 535.562L715.25 491.312L716.688 491.125L726 535.188L748.625 534.188L748.5 456.5H747.812L734 456.562L734.562 506.75L722.938 456.25L717.938 456.812L709.438 456.688L708.75 458.875L707.375 458.812L707.938 456.688ZM761.875 528.312L769.188 528.375L769.312 529.812L762.188 530.5L760.5 529.188L761.188 528.375L761.875 528.312ZM801.812 458.125L802.5 457.625H824.25V458.125L823.562 459.812L824.25 459.312H828.875C828.958 460.729 831.146 461.438 835.438 461.438L834.188 462.562L827.562 460.875L825.562 461.438L819 460.375V459.312H822.875V458.688H813.688L811 459.312L809.125 458.688L806.438 459.312L805.812 458.688H805.125L802.5 459.312L801.812 458.688V458.125ZM807.75 470.812V470.25C811.25 470.25 813.667 469.521 815 468.062V468.625L811.688 471.375V470.812L809.75 471.375L807.75 470.812ZM836.062 462.562L837.438 461.438L838.75 462.562H836.062ZM842.688 461.438V460.375H845.938V461.438H842.688ZM641.625 534.5V533.438H653.5L656.312 532.812L658 533.438H668.125L668.625 532.812L669.312 533.438H697.438V533.312L695.875 479.5L695.938 478.875L696.625 478.188L696.062 477.438L696.562 471.062C696.812 467.771 696.542 466.062 695.75 465.938L694.062 438.688L694.25 436.625L728.375 435.812L728.875 436.562L752.062 435.375L752.625 436.188C753.125 489.771 753.333 525.5 753.25 543.375L697.875 544.312L697.562 540.375L697.438 534.5H641.625ZM849.938 463.625H851.938V464.75H851.25L849.938 463.625ZM637.375 524.875V522.75L649.875 525.938V527.938L637.375 524.875ZM644.625 520.688V518.562L648.562 517.5V518.562L647.25 520.688H644.625ZM651.25 529V527H655.125V529H651.25ZM656.438 530.062V527.938H658.438V530.062H656.438ZM659.75 531.125V529H663.125V531.125H659.75ZM662.438 522.75V520.688H665.75V522.75H662.438ZM668.312 533.188V531.125H671.625V533.188H668.312ZM676.312 535.312V533.188H679.562V535.312H676.312ZM680.188 524.875V522.75H683.5V524.875H680.188ZM684.812 537.438V535.312H687.5V537.438H684.812ZM830.625 531L832.812 530.938L832.938 532.25L830.75 532.562L830.625 531ZM812.25 529.75L824 530.188L824.125 531.625L823.375 531.75L812.438 531.188L812.25 529.75ZM807.938 529.5L810.062 529.188L811.625 530.562L808 530.812L807.938 529.5ZM796.25 529.688L801.312 529.188L801.375 530.75H800.75L799.938 530.125L799.25 530.938L796.375 531.188L796.25 529.688ZM778 529.125L793.312 529.188L793.438 530.75L778.062 530.562L778 529.125Z" fill="black"/>
<path d="M755.938 535.125L772.5 535.188V534.188L773.625 464.812H757.062L757.188 518.062L755.938 535.125ZM757.938 457.188L773.562 457.25V457L774.125 441.062H758.5L757.938 457.188ZM790.125 467.188L788.562 465.562H787L785.438 467.188V468.75L787 470.375H788.562L790.125 468.75V467.188ZM825.625 444.062L825.688 441.125L823.812 440.25L820 441.5L818.125 443.5L818.062 446.438L819.938 447.312L823.688 446.062L825.625 444.062ZM783.375 432.375L780.75 542L747.75 540.875L746.438 537.312H745.75L747.75 518.438V517.25L747.125 516.062V514.938L747.75 513.688H748.375L747.75 512.562V511.312L748.375 505.5H747.75L748.375 504.25V493.688H751V492.438L749.688 488.938V487.812H751L752.375 485.438L751.688 484.25L752.375 483.062V481.875L751.688 480.688V479.5L749.688 441.75L750.375 440.562V439.375C749.042 439.375 748.375 438.583 748.375 437V434.688L750.375 431.125L783.375 432.375ZM694.562 552.062L694.188 551.562L695.438 536.562H695.875L697.188 537L696.812 536.562L697.125 533.312C698.292 533.271 699 531.771 699.25 528.812L700.062 529.688L698.312 534.25L698.688 535.625L697.438 540.188H696.562L696.75 537.5H696.25L695.75 543.875L696.062 545.688L695.5 547L695.812 548.875L695.312 549.312L695.25 549.75L695.625 551.562L695.062 552.062H694.562ZM705.438 547.938H704.938C705.146 545.521 704.688 543.854 703.562 542.938H704L706.125 545.25H705.625L706 546.562L705.438 547.938ZM716.75 460.688H718.188L718.062 461.188L716.625 461.625L716.75 460.688ZM707.25 461.625L710.688 461.75L713 462.375L712.875 463.312L707.25 462.125L706.125 463.062H705.625L707.25 461.625ZM700.188 528.375L699.312 527.438L700.312 526.5L700.188 528.375ZM699.625 523.75H698.75L698.938 521.5H699.812L699.625 523.75ZM697.625 520.125H696.75L701.062 467.25H701.938L699.5 497.75L699.938 498.25L699.375 498.625L698.75 506.875L699.125 508.25L698.438 510.562L697.625 520.125ZM701.875 518.75L701.938 517.375H702.875V517.875L701.875 518.75ZM702.938 516.5H702.062L704.125 507.812H705L702.938 516.5ZM701.562 511.438H700.625L700.375 508.75H700.875L701.688 509.625L701.562 511.438ZM705.562 506.875H704.688L704.875 504.188H705.75L705.562 506.875ZM706.312 503.25H705.375L705.5 501.875H706.438L706.312 503.25ZM706.938 501H706.062L706.25 498.625H707.125L706.938 501ZM703.438 499.125H702.562L702.75 496.812H703.625L703.438 499.125ZM708.312 495.062H707.438L707.625 492.75H708.5L708.312 495.062ZM709.688 489.5H708.75L708.938 487.25H709.875L709.688 489.5ZM705.375 486.875H704.438L704.625 484.562H705.562L705.375 486.875ZM711.125 483.625H710.188L710.312 481.812H711.25L711.125 483.625ZM713.188 474.5H711.375L711.438 473.688H713.25L713.188 474.5ZM723.625 461.375L725.875 461.5L725.75 462.438L723.5 462.312L723.625 461.375Z" fill="black"/>
<path d="M825.312 478.125H825.938L827.188 479.438H826.5L825.312 478.125ZM825.375 498.375L825.312 499.75L823.25 501.625L823.312 500.312L825.375 498.375ZM799.625 500.25L800.25 500.312L798.938 501.562H798.25L799.625 500.25ZM808.125 524L808.812 524.062L808.75 526.062L808.062 528H806.75V527.312L808.125 524ZM816.875 505.25L816.562 506H817.688C817.604 509.958 817.229 513.021 816.562 515.188V515.25C816.396 515.833 816.208 516.354 816 516.812L819.188 516.938L819.562 509.812L820.875 509.938L820.375 520.938L819.062 520.812L819.188 517.5L818.5 518.062L816.5 518L815.75 517.312C814.875 518.812 813.75 519.354 812.375 518.938C811.375 520.896 810.312 521.979 809.188 522.188C806.812 521.729 805.458 521.083 805.125 520.25L805.688 515.5L804.688 513.688C805.938 513.479 806.417 510.625 806.125 505.125L804.438 505.438L803.875 504.75V504.188L804.562 503.75H806.312L806 503.625L806.062 502.625L806.812 502.688L806.062 501.938V501.25L805.375 477.438H806.062L805.375 476.75L805.688 465.875L807.875 463.875H809.312C811.229 464.917 812.167 466.104 812.125 467.438L812.625 480.375L817 480.5L821.375 479.938L822.062 480.625H822.75L825.75 479.375L826.5 480.062L832.312 480.25L832.5 472.75C832.917 458.25 830.458 450.917 825.125 450.75L814.875 449.125L812.625 449.812L811.875 449L808.25 449.688L806.125 449.625L805.375 448.875C793.542 448.542 786.833 451.979 785.25 459.188L785.188 459.938L786.25 502.812H787L786.188 503.5V504.812C788.979 504.021 794.833 503.729 803.75 503.938L785.438 507.812L785.562 508.375L787 508.188L787.25 509.5L785.062 509.875L785.688 513.125L784.375 514.688L785.25 515.188L785.375 515.812L785.625 529C789.458 535 795.125 537.312 802.625 535.938L802.25 534.125C803.25 533.917 803.896 534.646 804.188 536.312L810.812 535.125C812.396 534.833 814.875 533.312 818.25 530.562C819.708 530.312 821.042 532.062 822.25 535.812L831.312 536.125L832 508.75L829.438 508L827.375 508.5L820.938 507.188V506.125L824.812 506.25L824.875 505.625L816.875 505.25ZM832.062 508L832.562 488L809.188 487.438L808.938 496.875L817.562 497.125L817.688 504.125H817.375V504H817.25L817.188 504.25L826.25 504.625V505.125L825.5 506.812L826.188 506.312L830.812 506.5C830.812 507.125 831.229 507.625 832.062 508ZM815.625 431.812L815.75 430.75L818.938 430.875L818.875 431.938L815.625 431.812ZM782.125 439.875L751.75 435.375V432.188L782.062 436.875V432.75L782.75 432H802.75L834.125 431.375V430.688L834.375 432.438L901 433.312V434.375L856.938 433.812L856.25 434.438L855.625 433.812L843.75 433.625L841.75 434.25L838.438 433.562L834.5 433.5L834.938 436.875L838.5 516.062L836.125 523.312L837.75 566.375L783.625 555.125C782.917 528.792 782.417 490.375 782.125 439.875ZM837.062 439.625V438.5L841 437.938V438.5L839.688 439.625H837.062ZM848.5 452.938V451.812H849.25L850.75 453L848.5 452.938ZM843.625 444.062V443L847.5 443.062V444.125L843.625 444.062ZM848.812 444.688V443.562L850.812 443.625V444.75L848.812 444.688ZM852.125 445.312V444.188L855.5 444.25V445.375L852.125 445.312ZM854.875 440.875V439.812L858.188 439.875V440.938L854.875 440.875ZM860.688 446.5V445.438H864V446.5H860.688ZM868.625 447.688L868.688 446.562L871.938 446.625L871.875 447.75L868.625 447.688ZM872.625 442.25V441.125L875.938 441.188V442.312L872.625 442.25ZM877.125 448.938V447.812L879.812 447.875V449L877.125 448.938ZM890.312 450.75V448.562H891.562V450.75H890.312Z" fill="black"/>
<path d="M870.875 495.938L870.625 534.375H884L885.312 449.812H870.812L870.875 483.875H850.938L851.188 449.812H836.75L836.562 534.375H850.438L850.312 526.75L850.812 495.938H870.875ZM833.938 431.812L843.5 430L851.5 433L862.625 431L889.875 440.438L892.062 439.875L892 441.375L891.25 488.188L890.562 488.875L891.125 492.562L890.5 505.438L891.062 508.375L890.188 511.25V511.938L891.5 513.5L889.938 517.688L890.625 517.812L889.875 518.438L890.062 530.688L891.375 532.188H890.688L891.312 533L890.562 535.062L891 541.562L890.25 542.312L891.562 543.875L891.5 545.25L890.625 549.562L891.25 550.312V551.062L890.438 553.125L888.312 553L836.938 544.438L834.812 544.312C833.438 544.188 833.146 506.688 833.938 431.812Z" fill="black"/>
<path d="M890.938 429C919.812 431.208 934.417 432.646 934.75 433.312L934.438 435.188C933.938 490.104 933.646 508.979 933.562 491.812L932.938 531.5L933.625 536.75L933.688 538.125L933 539L890.375 532.938L889.562 534.312L889.188 533.812H888.875L890.812 493.438C889.979 492.812 889.562 492.021 889.562 491.062C889.521 485.729 889.792 483.083 890.375 483.125C890.792 483.083 891 484.479 891 487.312H891.312L891.438 452.062H891.188C891.562 449.812 891.729 446.229 891.688 441.312L890.375 440.75V439.812L890.688 440.312L891 440.25V438.875H890.375V437.938L890 431.75C890.167 429.583 890.479 428.5 890.938 428.5V429ZM907.062 512.5H917.875V512.438L918.25 512.5L917.938 458.875H931.562V449.062H892.875V458.875H906.438L906.625 512.5L907.062 512.438V512.5Z" fill="black"/>
</svg>
